<svg width="120" height="102" viewBox="0 0 120 102" fill="none" xmlns="http://www.w3.org/2000/svg">
<path d="M19.944 20.92C17.496 20.92 15.744 21.304 14.688 22.072C13.632 22.792 13.104 24.04 13.104 25.816V43.024C13.104 45.472 12.672 47.248 11.808 48.352C10.944 49.408 9.576 50.248 7.704 50.872C9.624 51.544 10.992 52.384 11.808 53.392C12.672 54.4 13.104 56.128 13.104 58.576V75.784C13.104 77.56 13.632 78.808 14.688 79.528C15.744 80.296 17.496 80.68 19.944 80.68V85.792C15.144 85.792 11.76 84.952 9.792 83.272C7.824 81.64 6.84 78.904 6.84 75.064V59.08C6.84 57.064 6.456 55.648 5.688 54.832C4.968 54.016 3.672 53.608 1.8 53.608V48.136C3.672 48.136 4.968 47.704 5.688 46.84C6.456 45.976 6.84 44.536 6.84 42.52V26.536C6.84 22.696 7.824 19.96 9.792 18.328C11.76 16.648 15.144 15.808 19.944 15.808V20.92ZM83.6072 15.808C88.4072 15.808 91.7912 16.648 93.7592 18.328C95.7272 19.96 96.7112 22.696 96.7112 26.536V42.52C96.7112 44.536 97.0712 45.976 97.7912 46.84C98.5592 47.704 99.8792 48.136 101.751 48.136V53.608C99.8792 53.608 98.5592 54.016 97.7912 54.832C97.0712 55.648 96.7112 57.064 96.7112 59.08V75.064C96.7112 78.904 95.7272 81.64 93.7592 83.272C91.7912 84.952 88.4072 85.792 83.6072 85.792V80.68C86.0552 80.68 87.8072 80.296 88.8632 79.528C89.9192 78.808 90.4472 77.56 90.4472 75.784V58.576C90.4472 56.128 90.8552 54.4 91.6712 53.392C92.5352 52.384 93.9272 51.544 95.8472 50.872C93.9752 50.248 92.6072 49.408 91.7432 48.352C90.8792 47.248 90.4472 45.472 90.4472 43.024V25.816C90.4472 24.04 89.9192 22.792 88.8632 22.072C87.8072 21.304 86.0552 20.92 83.6072 20.92V15.808Z" fill="#A80079"/>
<path d="M77.024 82.808C76.208 82.808 75.392 82.664 74.576 82.376C73.808 82.088 73.184 81.488 72.704 80.576C72.224 79.712 72.008 78.416 72.056 76.688C72.104 75.44 72.392 74.024 72.92 72.44C73.496 70.856 74.12 69.248 74.792 67.616C75.512 65.984 76.136 64.496 76.664 63.152C77.192 61.808 77.456 60.776 77.456 60.056C77.456 59.864 77.408 59.672 77.312 59.48C76.688 59.384 76.208 59.192 75.872 58.904C75.584 58.568 75.44 58.256 75.44 57.968C75.44 57.584 75.68 57.392 76.16 57.392C77.072 57.392 77.72 57.848 78.104 58.76C79.976 58.136 81.896 57.104 83.864 55.664C85.832 54.224 87.824 52.568 89.84 50.696C91.856 48.824 93.872 46.904 95.888 44.936C97.952 42.968 99.992 41.168 102.008 39.536C104.024 37.856 106.016 36.512 107.984 35.504C109.952 34.448 111.872 33.92 113.744 33.92C115.328 33.92 116.696 34.28 117.848 35C119.048 35.72 119.648 36.944 119.648 38.672C119.648 39.008 119.576 39.272 119.432 39.464C119.288 39.656 119.216 39.68 119.216 39.536C119.216 38.624 118.904 37.904 118.28 37.376C117.656 36.8 116.888 36.392 115.976 36.152C115.112 35.912 114.272 35.816 113.456 35.864C111.872 36.008 110.144 36.608 108.272 37.664C106.448 38.72 104.504 40.064 102.44 41.696C100.424 43.328 98.36 45.056 96.248 46.88C94.136 48.704 92.024 50.48 89.912 52.208C87.848 53.936 85.808 55.424 83.792 56.672C81.824 57.92 79.952 58.76 78.176 59.192C78.272 59.384 78.32 59.624 78.32 59.912C78.32 60.152 78.32 60.416 78.32 60.704C78.32 62.096 78.104 63.848 77.672 65.96C77.576 66.44 77.408 67.232 77.168 68.336C76.928 69.392 76.712 70.592 76.52 71.936C76.328 73.28 76.232 74.576 76.232 75.824C76.232 77.264 76.424 78.488 76.808 79.496C77.24 80.504 77.984 81.008 79.04 81.008C79.952 81.008 80.744 80.816 81.416 80.432C82.088 80.096 82.688 79.712 83.216 79.28C83.264 79.28 83.336 79.304 83.432 79.352C83.528 79.4 83.504 79.544 83.36 79.784C82.736 80.696 81.8 81.416 80.552 81.944C79.352 82.52 78.176 82.808 77.024 82.808ZM43.04 82.664C42.176 82.664 41.264 82.52 40.304 82.232C39.344 81.944 38.528 81.416 37.856 80.648C37.136 79.928 36.776 78.944 36.776 77.696C36.776 77.024 37.016 76.304 37.496 75.536C37.928 74.72 38.504 74.288 39.224 74.24C39.032 74.432 38.888 74.744 38.792 75.176C38.744 75.608 38.72 75.992 38.72 76.328C38.768 77.144 39.128 77.84 39.8 78.416C40.472 78.992 41.528 79.28 42.968 79.28C44.792 79.28 46.688 78.752 48.656 77.696C50.672 76.592 52.688 75.152 54.704 73.376C56.768 71.552 58.76 69.536 60.68 67.328C62.648 65.12 64.448 62.888 66.08 60.632C67.424 58.712 68.96 56.624 70.688 54.368C72.464 52.064 74.36 49.808 76.376 47.6C78.44 45.344 80.552 43.352 82.712 41.624C82.088 41.528 81.368 41.432 80.552 41.336C79.784 41.192 78.92 41.024 77.96 40.832C77.048 40.688 75.896 40.544 74.504 40.4C73.16 40.256 71.696 40.184 70.112 40.184C68.24 40.184 66.32 40.376 64.352 40.76C62.384 41.096 60.512 41.744 58.736 42.704C57.008 43.664 55.52 45.08 54.272 46.952C53.936 47.432 53.648 48.032 53.408 48.752C53.216 49.424 53.12 50.096 53.12 50.768C53.12 51.632 53.36 52.4 53.84 53.072C54.32 53.696 55.112 54.008 56.216 54.008C56.408 54.008 56.6 54.008 56.792 54.008C57.032 53.96 57.248 53.912 57.44 53.864C57.488 53.864 57.512 53.888 57.512 53.936C57.512 53.984 57.44 54.104 57.296 54.296C57.2 54.44 56.984 54.56 56.648 54.656C56.456 54.704 56.264 54.752 56.072 54.8C55.88 54.8 55.688 54.8 55.496 54.8C53.768 54.8 52.544 54.296 51.824 53.288C51.104 52.28 50.744 51.152 50.744 49.904C50.744 47.936 51.248 46.304 52.256 45.008C54.032 42.608 56.216 41.048 58.808 40.328C61.4 39.56 64.16 39.176 67.088 39.176C69.488 39.176 71.888 39.296 74.288 39.536C76.736 39.776 79.064 39.896 81.272 39.896C82.856 39.896 84.368 39.752 85.808 39.464C87.248 39.128 88.256 38.504 88.832 37.592C89.168 37.832 89.336 38.24 89.336 38.816C89.336 39.296 89.144 39.8 88.76 40.328C88.424 40.856 87.8 41.264 86.888 41.552C86.168 41.744 85.28 41.816 84.224 41.768C82.016 43.496 79.856 45.584 77.744 48.032C75.68 50.48 73.76 52.976 71.984 55.52C70.208 58.016 68.624 60.272 67.232 62.288C65.552 64.592 63.824 66.944 62.048 69.344C60.272 71.744 58.4 73.952 56.432 75.968C54.464 77.984 52.376 79.592 50.168 80.792C47.96 82.04 45.584 82.664 43.04 82.664Z" fill="white"/>
<path d="M16.92 73.696C15.288 73.696 13.68 73.456 12.096 72.976C10.56 72.496 9.288 71.656 8.28 70.456C7.224 69.256 6.696 67.552 6.696 65.344C6.696 63.76 7.128 62.44 7.992 61.384C8.808 60.376 9.48 59.872 10.008 59.872C10.104 59.872 10.2 59.92 10.296 60.016C9.864 60.4 9.504 61.024 9.216 61.888C8.976 62.752 8.856 63.664 8.856 64.624C8.856 66.592 9.504 68.344 10.8 69.88C12.144 71.416 14.064 72.184 16.56 72.184C19.92 72.184 22.92 71.344 25.56 69.664C28.248 68.032 30.672 65.848 32.832 63.112C35.04 60.424 37.104 57.496 39.024 54.328C39.936 52.84 40.752 51.52 41.472 50.368C42.24 49.168 42.936 48.088 43.56 47.128C42.264 48.568 40.752 50.08 39.024 51.664C37.344 53.248 35.544 54.736 33.624 56.128C31.752 57.472 29.808 58.552 27.792 59.368C25.824 60.232 23.88 60.664 21.96 60.664C20.04 60.664 18.384 60.088 16.992 58.936C15.6 57.784 14.904 55.768 14.904 52.888C14.904 50.2 15.504 47.536 16.704 44.896C17.904 42.208 19.488 39.616 21.456 37.12C18.384 36.736 15.864 35.968 13.896 34.816C11.928 33.664 10.944 31.984 10.944 29.776C10.944 28.24 11.376 26.968 12.24 25.96C13.104 24.904 14.184 24.064 15.48 23.44C16.824 22.816 18.24 22.336 19.728 22C21.264 21.664 22.68 21.448 23.976 21.352C25.32 21.256 26.376 21.208 27.144 21.208C27.384 21.208 27.936 21.232 28.8 21.28C29.712 21.28 30.672 21.328 31.68 21.424C32.736 21.472 33.648 21.568 34.416 21.712C35.184 21.856 35.568 22.024 35.568 22.216C35.568 22.408 35.4 22.504 35.064 22.504C34.44 22.504 33.744 22.48 32.976 22.432C32.208 22.336 31.44 22.288 30.672 22.288C30.096 22.288 29.52 22.288 28.944 22.288C28.368 22.288 27.816 22.312 27.288 22.36C26.328 22.408 25.128 22.528 23.688 22.72C22.248 22.864 20.808 23.2 19.368 23.728C17.976 24.208 16.8 24.952 15.84 25.96C14.88 26.92 14.4 28.24 14.4 29.92C14.4 31.696 15.12 33.088 16.56 34.096C18.048 35.056 19.968 35.68 22.32 35.968C24.576 33.28 27.144 30.808 30.024 28.552C32.904 26.248 35.832 24.256 38.808 22.576C41.832 20.896 44.736 19.576 47.52 18.616C50.352 17.656 52.824 17.176 54.936 17.176C56.328 17.176 57.624 17.44 58.824 17.968C60.024 18.448 60.624 19.48 60.624 21.064C60.624 22.936 59.88 24.688 58.392 26.32C56.952 27.952 55.008 29.44 52.56 30.784C50.112 32.128 47.376 33.304 44.352 34.312C41.328 35.272 38.208 36.016 34.992 36.544C31.776 37.072 28.704 37.336 25.776 37.336H25.488C23.424 39.976 21.768 42.736 20.52 45.616C19.32 48.448 18.72 51.208 18.72 53.896C18.72 55.864 19.128 57.232 19.944 58C20.76 58.768 21.768 59.152 22.968 59.152C24.12 59.152 25.344 58.912 26.64 58.432C27.984 57.952 29.256 57.376 30.456 56.704C31.656 55.984 32.664 55.312 33.48 54.688C35.4 53.2 37.248 51.64 39.024 50.008C40.848 48.376 42.456 46.84 43.848 45.4C45.288 43.96 46.392 42.784 47.16 41.872C48.12 40.624 48.984 39.496 49.752 38.488C50.568 37.432 51.6 36.904 52.848 36.904C53.664 36.904 54.072 37.264 54.072 37.984C54.072 38.56 53.808 38.968 53.28 39.208C52.08 39.256 50.952 39.664 49.896 40.432C48.888 41.152 48.12 42.16 47.592 43.456C46.824 45.328 46.056 47.248 45.288 49.216C44.52 51.184 43.656 53.152 42.696 55.12C41.112 58.432 39.12 61.504 36.72 64.336C34.368 67.168 31.56 69.424 28.296 71.104C25.032 72.832 21.24 73.696 16.92 73.696ZM26.352 36.184C28.992 36.136 31.8 35.848 34.776 35.32C37.752 34.744 40.656 33.976 43.488 33.016C46.368 32.056 48.96 30.952 51.264 29.704C53.616 28.408 55.488 27.016 56.88 25.528C58.272 23.992 58.968 22.432 58.968 20.848C58.968 19.744 58.536 19.024 57.672 18.688C56.856 18.352 55.968 18.184 55.008 18.184C53.04 18.184 50.832 18.664 48.384 19.624C45.936 20.536 43.392 21.808 40.752 23.44C38.16 25.072 35.616 26.992 33.12 29.2C30.624 31.36 28.368 33.688 26.352 36.184Z" fill="white"/>
</svg>
